# This file uses centimeters as units for non-parametric coordinates.

mtllib Cercle_Creux.mtl
g default
v 0.000000 -0.376743 5.988160
v 0.000000 0.376744 5.988160
v 0.000000 1.124288 5.893723
v 0.000000 1.854103 5.706339
v 0.000000 2.554676 5.428962
v 0.000000 3.214961 5.065967
v 0.000000 3.824544 4.623079
v 0.000000 4.373813 4.107283
v 0.000000 4.854102 3.526711
v 0.000000 5.257841 2.890521
v 0.000000 5.578659 2.208747
v 0.000000 5.811500 1.492138
v 0.000000 5.952688 0.751998
v 0.000000 6.000000 -0.000000
v 0.000000 5.952688 -0.752000
v 0.000000 5.811499 -1.492140
v 0.000000 5.578659 -2.208749
v 0.000000 5.257840 -2.890524
v 0.000000 4.854101 -3.526713
v 0.000000 4.373811 -4.107284
v 0.000000 3.824543 -4.623080
v 0.000000 3.214960 -5.065969
v 0.000000 2.554675 -5.428963
v 0.000000 1.854100 -5.706340
v 0.000000 1.124286 -5.893723
v 0.000000 0.376742 -5.988161
v 0.000000 -0.376744 -5.988160
v 0.000000 -1.124289 -5.893723
v 0.000000 -1.854104 -5.706339
v 0.000000 -2.554678 -5.428962
v 0.000000 -3.214962 -5.065968
v 0.000000 -3.824545 -4.623079
v 0.000000 -4.373813 -4.107281
v 0.000000 -4.854103 -3.526710
v 0.000000 -5.257841 -2.890520
v 0.000000 -5.578660 -2.208745
v 0.000000 -5.811500 -1.492137
v 0.000000 -5.952689 -0.751997
v 0.000000 -6.000000 0.000000
v 0.000000 -5.952688 0.752000
v 0.000000 -5.811499 1.492141
v 0.000000 -5.578659 2.208749
v 0.000000 -5.257839 2.890523
v 0.000000 -4.854101 3.526713
v 0.000000 -4.373810 4.107285
v 0.000000 -3.824541 4.623082
v 0.000000 -3.214957 5.065970
v 0.000000 -2.554671 5.428964
v 0.000000 -1.854097 5.706341
v 0.000000 -1.124288 5.893723
v 0.000000 0.000000 6.000000
v 0.000000 0.752000 5.952688
v 0.000000 1.492140 5.811499
v 0.000000 2.208748 5.578659
v 0.000000 2.890522 5.257840
v 0.000000 3.526712 4.854102
v 0.000000 4.107283 4.373811
v 0.000000 4.623080 3.824544
v 0.000000 5.065968 3.214960
v 0.000000 5.428963 2.554676
v 0.000000 5.706340 1.854101
v 0.000000 5.893723 1.124287
v 0.000000 5.988160 0.376742
v 0.000000 5.988160 -0.376744
v 0.000000 5.893723 -1.124289
v 0.000000 5.706339 -1.854103
v 0.000000 5.428962 -2.554677
v 0.000000 5.065967 -3.214962
v 0.000000 4.623079 -3.824545
v 0.000000 4.107282 -4.373813
v 0.000000 3.526711 -4.854103
v 0.000000 2.890521 -5.257840
v 0.000000 2.208746 -5.578659
v 0.000000 1.492138 -5.811500
v 0.000000 0.751998 -5.952689
v 0.000000 -0.000001 -6.000000
v 0.000000 -0.752001 -5.952688
v 0.000000 -1.492141 -5.811499
v 0.000000 -2.208749 -5.578658
v 0.000000 -2.890523 -5.257839
v 0.000000 -3.526712 -4.854101
v 0.000000 -4.107284 -4.373811
v 0.000000 -4.623081 -3.824543
v 0.000000 -5.065969 -3.214959
v 0.000000 -5.428964 -2.554674
v 0.000000 -5.706340 -1.854099
v 0.000000 -5.893724 -1.124285
v 0.000000 -5.988161 -0.376741
v 0.000000 -5.988160 0.376744
v 0.000000 -5.893723 1.124289
v 0.000000 -5.706339 1.854103
v 0.000000 -5.428962 2.554677
v 0.000000 -5.065967 3.214962
v 0.000000 -4.623078 3.824546
v 0.000000 -4.107281 4.373814
v 0.000000 -3.526708 4.854105
v 0.000000 -2.890518 5.257842
v 0.000000 -2.208743 5.578661
v 0.000000 -1.492137 5.811500
v 0.000000 -0.751999 5.952688
v 0.000000 0.000000 5.023285
v 0.000000 -0.629584 4.983675
v 0.000000 0.629585 4.983675
v 0.000000 1.249240 4.865469
v 0.000000 1.849194 4.670533
v 0.000000 2.419986 4.401938
v 0.000000 2.952614 4.063921
v 0.000000 3.438676 3.661816
v 0.000000 3.870509 3.201962
v 0.000000 4.241300 2.691610
v 0.000000 4.545206 2.138811
v 0.000000 4.777429 1.552280
v 0.000000 4.934308 0.941269
v 0.000000 5.013372 0.315414
v 0.000000 5.013372 -0.315415
v 0.000000 4.934308 -0.941270
v 0.000000 4.777429 -1.552280
v 0.000000 4.545206 -2.138811
v 0.000000 4.241299 -2.691611
v 0.000000 3.870507 -3.201962
v 0.000000 3.438674 -3.661817
v 0.000000 2.952612 -4.063922
v 0.000000 2.419985 -4.401937
v 0.000000 1.849193 -4.670533
v 0.000000 1.249238 -4.865469
v 0.000000 0.629584 -4.983675
v 0.000000 -0.000001 -5.023285
v 0.000000 -0.629586 -4.983675
v 0.000000 -1.249241 -4.865468
v 0.000000 -1.849196 -4.670532
v 0.000000 -2.419987 -4.401937
v 0.000000 -2.952613 -4.063921
v 0.000000 -3.438676 -3.661816
v 0.000000 -3.870509 -3.201962
v 0.000000 -4.241301 -2.691609
v 0.000000 -4.545206 -2.138809
v 0.000000 -4.777429 -1.552278
v 0.000000 -4.934308 -0.941267
v 0.000000 -5.013372 -0.315413
v 0.000000 -5.013372 0.315415
v 0.000000 -4.934308 0.941271
v 0.000000 -4.777427 1.552282
v 0.000000 -4.545204 2.138812
v 0.000000 -4.241299 2.691613
v 0.000000 -3.870506 3.201964
v 0.000000 -3.438672 3.661819
v 0.000000 -2.952609 4.063924
v 0.000000 -2.419982 4.401940
v 0.000000 -1.849191 4.670534
v 0.000000 -1.249238 4.865469
vt 0.468605 0.000987
vt 0.531395 0.000987
vt 0.593691 0.008856
vt 0.654509 0.024472
vt 0.712890 0.047586
vt 0.767913 0.077836
vt 0.818712 0.114743
vt 0.864484 0.157726
vt 0.904509 0.206107
vt 0.938153 0.259123
vt 0.964888 0.315938
vt 0.984292 0.375655
vt 0.996057 0.437333
vt 1.000000 0.500000
vt 0.996057 0.562667
vt 0.984292 0.624345
vt 0.964888 0.684062
vt 0.938153 0.740877
vt 0.904508 0.793893
vt 0.864484 0.842274
vt 0.818712 0.885257
vt 0.767913 0.922164
vt 0.712890 0.952414
vt 0.654508 0.975528
vt 0.593691 0.991144
vt 0.531395 0.999013
vt 0.468605 0.999013
vt 0.406309 0.991144
vt 0.345491 0.975528
vt 0.287110 0.952413
vt 0.232087 0.922164
vt 0.181288 0.885257
vt 0.135516 0.842273
vt 0.095491 0.793893
vt 0.061847 0.740877
vt 0.035112 0.684062
vt 0.015708 0.624345
vt 0.003943 0.562666
vt 0.000000 0.500000
vt 0.003943 0.437333
vt 0.015708 0.375655
vt 0.035112 0.315938
vt 0.061847 0.259123
vt 0.095492 0.206107
vt 0.135516 0.157726
vt 0.181288 0.114743
vt 0.232087 0.077836
vt 0.287111 0.047586
vt 0.345492 0.024472
vt 0.406309 0.008856
vt 0.500000 0.000000
vt 0.562667 0.003943
vt 0.624345 0.015708
vt 0.684062 0.035112
vt 0.740877 0.061847
vt 0.793893 0.095492
vt 0.842274 0.135516
vt 0.885257 0.181288
vt 0.922164 0.232087
vt 0.952414 0.287110
vt 0.975528 0.345492
vt 0.991144 0.406309
vt 0.999013 0.468605
vt 0.999013 0.531395
vt 0.991144 0.593691
vt 0.975528 0.654509
vt 0.952413 0.712890
vt 0.922164 0.767913
vt 0.885257 0.818712
vt 0.842273 0.864484
vt 0.793893 0.904509
vt 0.740877 0.938153
vt 0.684062 0.964888
vt 0.624345 0.984292
vt 0.562667 0.996057
vt 0.500000 1.000000
vt 0.437333 0.996057
vt 0.375655 0.984292
vt 0.315938 0.964888
vt 0.259123 0.938153
vt 0.206107 0.904508
vt 0.157726 0.864484
vt 0.114743 0.818712
vt 0.077836 0.767913
vt 0.047586 0.712889
vt 0.024472 0.654508
vt 0.008856 0.593690
vt 0.000987 0.531395
vt 0.000987 0.468605
vt 0.008856 0.406309
vt 0.024472 0.345491
vt 0.047587 0.287110
vt 0.077836 0.232086
vt 0.114744 0.181288
vt 0.157727 0.135516
vt 0.206108 0.095491
vt 0.259124 0.061846
vt 0.315938 0.035112
vt 0.375655 0.015708
vt 0.437333 0.003943
vt 0.500000 0.250000
vt 0.468667 0.251971
vt 0.531333 0.251971
vt 0.562172 0.257854
vt 0.592031 0.267556
vt 0.620438 0.280923
vt 0.646946 0.297746
vt 0.671137 0.317758
vt 0.692628 0.340644
vt 0.711082 0.366043
vt 0.726207 0.393555
vt 0.737764 0.422746
vt 0.745572 0.453155
vt 0.749507 0.484302
vt 0.749507 0.515698
vt 0.745572 0.546845
vt 0.737764 0.577254
vt 0.726207 0.606445
vt 0.711082 0.633957
vt 0.692628 0.659356
vt 0.671137 0.682242
vt 0.646946 0.702254
vt 0.620438 0.719077
vt 0.592031 0.732444
vt 0.562172 0.742146
vt 0.531333 0.748029
vt 0.500000 0.750000
vt 0.468667 0.748029
vt 0.437827 0.742146
vt 0.407969 0.732444
vt 0.379562 0.719077
vt 0.353054 0.702254
vt 0.328863 0.682242
vt 0.307372 0.659356
vt 0.288918 0.633957
vt 0.273793 0.606445
vt 0.262236 0.577254
vt 0.254428 0.546845
vt 0.250493 0.515698
vt 0.250493 0.484302
vt 0.254428 0.453155
vt 0.262236 0.422746
vt 0.273793 0.393555
vt 0.288918 0.366043
vt 0.307372 0.340644
vt 0.328863 0.317758
vt 0.353054 0.297746
vt 0.379562 0.280923
vt 0.407969 0.267556
vt 0.437828 0.257854
vn -1.000000 0.000000 0.000000
vn -1.000000 0.000000 0.000000
vn -1.000000 0.000000 0.000000
vn -1.000000 0.000000 0.000000
vn -1.000000 0.000000 0.000000
vn -1.000000 0.000000 0.000000
vn -1.000000 0.000000 0.000000
vn -1.000000 0.000000 0.000000
vn -1.000000 0.000000 0.000000
vn -1.000000 0.000000 0.000000
vn -1.000000 0.000000 0.000000
vn -1.000000 0.000000 0.000000
vn -1.000000 0.000000 0.000000
vn -1.000000 0.000000 0.000000
vn -1.000000 0.000000 0.000000
vn -1.000000 0.000000 0.000000
vn -1.000000 0.000000 0.000000
vn -1.000000 0.000000 0.000000
vn -1.000000 0.000000 0.000000
vn -1.000000 0.000000 0.000000
vn -1.000000 0.000000 0.000000
vn -1.000000 0.000000 0.000000
vn -1.000000 0.000000 0.000000
vn -1.000000 0.000000 0.000000
vn -1.000000 0.000000 0.000000
vn -1.000000 0.000000 0.000000
vn -1.000000 0.000000 0.000000
vn -1.000000 0.000000 0.000000
vn -1.000000 0.000000 0.000000
vn -1.000000 0.000000 0.000000
vn -1.000000 0.000000 0.000000
vn -1.000000 0.000000 0.000000
vn -1.000000 0.000000 0.000000
vn -1.000000 0.000000 0.000000
vn -1.000000 0.000000 0.000000
vn -1.000000 0.000000 0.000000
vn -1.000000 0.000000 0.000000
vn -1.000000 0.000000 0.000000
vn -1.000000 0.000000 0.000000
vn -1.000000 0.000000 0.000000
vn -1.000000 0.000000 0.000000
vn -1.000000 0.000000 0.000000
vn -1.000000 0.000000 0.000000
vn -1.000000 0.000000 0.000000
vn -1.000000 0.000000 0.000000
vn -1.000000 0.000000 0.000000
vn -1.000000 0.000000 0.000000
vn -1.000000 0.000000 0.000000
vn -1.000000 0.000000 0.000000
vn -1.000000 0.000000 0.000000
vn -1.000000 0.000000 0.000000
vn -1.000000 0.000000 0.000000
vn -1.000000 0.000000 0.000000
vn -1.000000 0.000000 0.000000
vn -1.000000 0.000000 0.000000
vn -1.000000 0.000000 0.000000
vn -1.000000 0.000000 0.000000
vn -1.000000 0.000000 0.000000
vn -1.000000 0.000000 0.000000
vn -1.000000 0.000000 0.000000
vn -1.000000 0.000000 0.000000
vn -1.000000 0.000000 0.000000
vn -1.000000 0.000000 0.000000
vn -1.000000 0.000000 0.000000
vn -1.000000 0.000000 0.000000
vn -1.000000 0.000000 0.000000
vn -1.000000 0.000000 0.000000
vn -1.000000 0.000000 0.000000
vn -1.000000 0.000000 0.000000
vn -1.000000 0.000000 0.000000
vn -1.000000 0.000000 0.000000
vn -1.000000 0.000000 0.000000
vn -1.000000 0.000000 0.000000
vn -1.000000 0.000000 0.000000
vn -1.000000 0.000000 0.000000
vn -1.000000 0.000000 0.000000
vn -1.000000 0.000000 0.000000
vn -1.000000 0.000000 0.000000
vn -1.000000 0.000000 0.000000
vn -1.000000 0.000000 0.000000
vn -1.000000 0.000000 0.000000
vn -1.000000 0.000000 0.000000
vn -1.000000 0.000000 0.000000
vn -1.000000 0.000000 0.000000
vn -1.000000 0.000000 0.000000
vn -1.000000 0.000000 0.000000
vn -1.000000 0.000000 0.000000
vn -1.000000 0.000000 0.000000
vn -1.000000 0.000000 0.000000
vn -1.000000 0.000000 0.000000
vn -1.000000 0.000000 0.000000
vn -1.000000 0.000000 0.000000
vn -1.000000 0.000000 0.000000
vn -1.000000 0.000000 0.000000
vn -1.000000 0.000000 0.000000
vn -1.000000 0.000000 0.000000
vn -1.000000 0.000000 0.000000
vn -1.000000 0.000000 0.000000
vn -1.000000 0.000000 0.000000
vn -1.000000 0.000000 0.000000
vn -1.000000 0.000000 0.000000
vn -1.000000 0.000000 0.000000
vn -1.000000 0.000000 0.000000
vn -1.000000 0.000000 0.000000
vn -1.000000 0.000000 0.000000
vn -1.000000 0.000000 0.000000
vn -1.000000 0.000000 0.000000
vn -1.000000 0.000000 0.000000
vn -1.000000 0.000000 0.000000
vn -1.000000 0.000000 0.000000
vn -1.000000 0.000000 0.000000
vn -1.000000 0.000000 0.000000
vn -1.000000 0.000000 0.000000
vn -1.000000 0.000000 0.000000
vn -1.000000 0.000000 0.000000
vn -1.000000 0.000000 0.000000
vn -1.000000 0.000000 0.000000
vn -1.000000 0.000000 0.000000
vn -1.000000 0.000000 0.000000
vn -1.000000 0.000000 0.000000
vn -1.000000 0.000000 0.000000
vn -1.000000 0.000000 0.000000
vn -1.000000 0.000000 0.000000
vn -1.000000 0.000000 0.000000
vn -1.000000 0.000000 0.000000
vn -1.000000 0.000000 0.000000
vn -1.000000 0.000000 0.000000
vn -1.000000 0.000000 0.000000
vn -1.000000 0.000000 0.000000
vn -1.000000 0.000000 0.000000
vn -1.000000 0.000000 0.000000
vn -1.000000 0.000000 0.000000
vn -1.000000 0.000000 0.000000
vn -1.000000 0.000000 0.000000
vn -1.000000 0.000000 0.000000
vn -1.000000 0.000000 0.000000
vn -1.000000 0.000000 0.000000
vn -1.000000 0.000000 0.000000
vn -1.000000 0.000000 0.000000
vn -1.000000 0.000000 0.000000
vn -1.000000 0.000000 0.000000
vn -1.000000 0.000000 0.000000
vn -1.000000 0.000000 0.000000
vn -1.000000 0.000000 0.000000
vn -1.000000 0.000000 0.000000
vn -1.000000 0.000000 0.000000
vn -1.000000 0.000000 0.000000
vn -1.000000 0.000000 0.000000
vn -1.000000 0.000000 0.000000
vn -1.000000 0.000000 0.000000
s 1
g CercleCreux
usemtl initialShadingGroup
f 99/99/1 50/50/2 100/100/3 102/102/4 150/150/5
f 100/100/3 1/1/6 51/51/7 101/101/8 102/102/4
f 51/51/7 2/2/9 52/52/10 103/103/11 101/101/8
f 52/52/10 3/3/12 53/53/13 104/104/14 103/103/11
f 53/53/13 4/4/15 54/54/16 105/105/17 104/104/14
f 54/54/16 5/5/18 55/55/19 106/106/20 105/105/17
f 55/55/19 6/6/21 56/56/22 107/107/23 106/106/20
f 56/56/22 7/7/24 57/57/25 108/108/26 107/107/23
f 57/57/25 8/8/27 58/58/28 109/109/29 108/108/26
f 58/58/28 9/9/30 59/59/31 110/110/32 109/109/29
f 59/59/31 10/10/33 60/60/34 111/111/35 110/110/32
f 60/60/34 11/11/36 61/61/37 112/112/38 111/111/35
f 61/61/37 12/12/39 62/62/40 113/113/41 112/112/38
f 62/62/40 13/13/42 63/63/43 114/114/44 113/113/41
f 63/63/43 14/14/45 64/64/46 115/115/47 114/114/44
f 64/64/46 15/15/48 65/65/49 116/116/50 115/115/47
f 65/65/49 16/16/51 66/66/52 117/117/53 116/116/50
f 66/66/52 17/17/54 67/67/55 118/118/56 117/117/53
f 67/67/55 18/18/57 68/68/58 119/119/59 118/118/56
f 68/68/58 19/19/60 69/69/61 120/120/62 119/119/59
f 69/69/61 20/20/63 70/70/64 121/121/65 120/120/62
f 70/70/64 21/21/66 71/71/67 122/122/68 121/121/65
f 71/71/67 22/22/69 72/72/70 123/123/71 122/122/68
f 72/72/70 23/23/72 73/73/73 124/124/74 123/123/71
f 73/73/73 24/24/75 74/74/76 125/125/77 124/124/74
f 74/74/76 25/25/78 75/75/79 126/126/80 125/125/77
f 75/75/79 26/26/81 76/76/82 127/127/83 126/126/80
f 76/76/82 27/27/84 77/77/85 128/128/86 127/127/83
f 77/77/85 28/28/87 78/78/88 129/129/89 128/128/86
f 78/78/88 29/29/90 79/79/91 130/130/92 129/129/89
f 79/79/91 30/30/93 80/80/94 131/131/95 130/130/92
f 80/80/94 31/31/96 81/81/97 132/132/98 131/131/95
f 81/81/97 32/32/99 82/82/100 133/133/101 132/132/98
f 82/82/100 33/33/102 83/83/103 134/134/104 133/133/101
f 83/83/103 34/34/105 84/84/106 135/135/107 134/134/104
f 84/84/106 35/35/108 85/85/109 136/136/110 135/135/107
f 85/85/109 36/36/111 86/86/112 137/137/113 136/136/110
f 86/86/112 37/37/114 87/87/115 138/138/116 137/137/113
f 87/87/115 38/38/117 88/88/118 139/139/119 138/138/116
f 88/88/118 39/39/120 89/89/121 140/140/122 139/139/119
f 89/89/121 40/40/123 90/90/124 141/141/125 140/140/122
f 90/90/124 41/41/126 91/91/127 142/142/128 141/141/125
f 91/91/127 42/42/129 92/92/130 143/143/131 142/142/128
f 92/92/130 43/43/132 93/93/133 144/144/134 143/143/131
f 93/93/133 44/44/135 94/94/136 145/145/137 144/144/134
f 94/94/136 45/45/138 95/95/139 146/146/140 145/145/137
f 95/95/139 46/46/141 96/96/142 147/147/143 146/146/140
f 96/96/142 47/47/144 97/97/145 148/148/146 147/147/143
f 97/97/145 48/48/147 98/98/148 149/149/149 148/148/146
f 98/98/148 49/49/150 99/99/1 150/150/5 149/149/149
