# This file uses centimeters as units for non-parametric coordinates.

mtllib Cercle_Plein.mtl
g default
v 0.000000 -0.376743 5.988160
v 0.000000 0.376744 5.988160
v 0.000000 1.124288 5.893723
v 0.000000 1.854103 5.706340
v 0.000000 2.554676 5.428963
v 0.000000 3.214961 5.065968
v 0.000000 3.824544 4.623079
v 0.000000 4.373813 4.107283
v 0.000000 4.854102 3.526712
v 0.000000 5.257841 2.890522
v 0.000000 5.578659 2.208746
v 0.000000 5.811500 1.492138
v 0.000000 5.952688 0.751999
v 0.000000 6.000000 -0.000000
v 0.000000 5.952688 -0.752001
v 0.000000 5.811499 -1.492140
v 0.000000 5.578659 -2.208748
v 0.000000 5.257840 -2.890524
v 0.000000 4.854101 -3.526712
v 0.000000 4.373811 -4.107283
v 0.000000 3.824543 -4.623081
v 0.000000 3.214960 -5.065968
v 0.000000 2.554675 -5.428963
v 0.000000 1.854100 -5.706341
v 0.000000 1.124286 -5.893723
v 0.000000 0.376742 -5.988159
v 0.000000 -0.376744 -5.988159
v 0.000000 -1.124289 -5.893723
v 0.000000 -1.854104 -5.706337
v 0.000000 -2.554678 -5.428961
v 0.000000 -3.214962 -5.065968
v 0.000000 -3.824545 -4.623079
v 0.000000 -4.373813 -4.107283
v 0.000000 -4.854103 -3.526711
v 0.000000 -5.257841 -2.890522
v 0.000000 -5.578660 -2.208744
v 0.000000 -5.811500 -1.492136
v 0.000000 -5.952689 -0.751995
v 0.000000 -6.000000 -0.000000
v 0.000000 -5.952688 0.752001
v 0.000000 -5.811499 1.492140
v 0.000000 -5.578659 2.208748
v 0.000000 -5.257839 2.890524
v 0.000000 -4.854101 3.526714
v 0.000000 -4.373810 4.107285
v 0.000000 -3.824541 4.623081
v 0.000000 -3.214957 5.065969
v 0.000000 -2.554671 5.428965
v 0.000000 -1.854097 5.706340
v 0.000000 -1.124288 5.893723
v 0.000000 0.000000 6.000000
v 0.000000 0.752000 5.952688
v 0.000000 1.492140 5.811500
v 0.000000 2.208748 5.578658
v 0.000000 2.890522 5.257839
v 0.000000 3.526712 4.854101
v 0.000000 4.107283 4.373810
v 0.000000 4.623080 3.824545
v 0.000000 5.065968 3.214962
v 0.000000 5.428963 2.554676
v 0.000000 5.706340 1.854101
v 0.000000 5.893723 1.124287
v 0.000000 5.988160 0.376741
v 0.000000 5.988160 -0.376743
v 0.000000 5.893723 -1.124289
v 0.000000 5.706339 -1.854103
v 0.000000 5.428962 -2.554676
v 0.000000 5.065967 -3.214962
v 0.000000 4.623079 -3.824545
v 0.000000 4.107282 -4.373814
v 0.000000 3.526711 -4.854103
v 0.000000 2.890521 -5.257841
v 0.000000 2.208746 -5.578659
v 0.000000 1.492138 -5.811501
v 0.000000 0.751998 -5.952688
v 0.000000 -0.000001 -6.000000
v 0.000000 -0.752001 -5.952688
v 0.000000 -1.492141 -5.811497
v 0.000000 -2.208749 -5.578659
v 0.000000 -2.890523 -5.257839
v 0.000000 -3.526712 -4.854101
v 0.000000 -4.107284 -4.373810
v 0.000000 -4.623081 -3.824543
v 0.000000 -5.065969 -3.214958
v 0.000000 -5.428964 -2.554674
v 0.000000 -5.706340 -1.854099
v 0.000000 -5.893724 -1.124287
v 0.000000 -5.988161 -0.376741
v 0.000000 -5.988160 0.376743
v 0.000000 -5.893723 1.124289
v 0.000000 -5.706339 1.854103
v 0.000000 -5.428962 2.554676
v 0.000000 -5.065967 3.214964
v 0.000000 -4.623078 3.824547
v 0.000000 -4.107281 4.373814
v 0.000000 -3.526708 4.854105
v 0.000000 -2.890518 5.257842
v 0.000000 -2.208743 5.578661
v 0.000000 -1.492137 5.811500
v 0.000000 -0.751999 5.952688
v 0.000000 0.000000 -0.000000
vt 0.468605 0.000987
vt 0.531395 0.000987
vt 0.593691 0.008856
vt 0.654509 0.024472
vt 0.712890 0.047586
vt 0.767913 0.077836
vt 0.818712 0.114743
vt 0.864484 0.157726
vt 0.904509 0.206107
vt 0.938153 0.259123
vt 0.964888 0.315938
vt 0.984292 0.375655
vt 0.996057 0.437333
vt 1.000000 0.500000
vt 0.996057 0.562667
vt 0.984292 0.624345
vt 0.964888 0.684062
vt 0.938153 0.740877
vt 0.904508 0.793893
vt 0.864484 0.842274
vt 0.818712 0.885257
vt 0.767913 0.922164
vt 0.712890 0.952414
vt 0.654508 0.975528
vt 0.593691 0.991144
vt 0.531395 0.999013
vt 0.468605 0.999013
vt 0.406309 0.991144
vt 0.345491 0.975528
vt 0.287110 0.952413
vt 0.232087 0.922164
vt 0.181288 0.885257
vt 0.135516 0.842273
vt 0.095491 0.793893
vt 0.061847 0.740877
vt 0.035112 0.684062
vt 0.015708 0.624345
vt 0.003943 0.562666
vt 0.000000 0.500000
vt 0.003943 0.437333
vt 0.015708 0.375655
vt 0.035112 0.315938
vt 0.061847 0.259123
vt 0.095492 0.206107
vt 0.135516 0.157726
vt 0.181288 0.114743
vt 0.232087 0.077836
vt 0.287111 0.047586
vt 0.345492 0.024472
vt 0.406309 0.008856
vt 0.500000 0.000000
vt 0.562667 0.003943
vt 0.624345 0.015708
vt 0.684062 0.035112
vt 0.740877 0.061847
vt 0.793893 0.095492
vt 0.842274 0.135516
vt 0.885257 0.181288
vt 0.922164 0.232087
vt 0.952414 0.287110
vt 0.975528 0.345492
vt 0.991144 0.406309
vt 0.999013 0.468605
vt 0.999013 0.531395
vt 0.991144 0.593691
vt 0.975528 0.654509
vt 0.952413 0.712890
vt 0.922164 0.767913
vt 0.885257 0.818712
vt 0.842273 0.864484
vt 0.793893 0.904509
vt 0.740877 0.938153
vt 0.684062 0.964888
vt 0.624345 0.984292
vt 0.562667 0.996057
vt 0.500000 1.000000
vt 0.437333 0.996057
vt 0.375655 0.984292
vt 0.315938 0.964888
vt 0.259123 0.938153
vt 0.206107 0.904508
vt 0.157726 0.864484
vt 0.114743 0.818712
vt 0.077836 0.767913
vt 0.047586 0.712889
vt 0.024472 0.654508
vt 0.008856 0.593690
vt 0.000987 0.531395
vt 0.000987 0.468605
vt 0.008856 0.406309
vt 0.024472 0.345491
vt 0.047587 0.287110
vt 0.077836 0.232086
vt 0.114744 0.181288
vt 0.157727 0.135516
vt 0.206108 0.095491
vt 0.259124 0.061846
vt 0.315938 0.035112
vt 0.375655 0.015708
vt 0.437333 0.003943
vt 0.500000 0.500000
vn -1.000000 0.000000 0.000000
vn -1.000000 0.000000 0.000000
vn -1.000000 0.000000 0.000000
vn -1.000000 0.000000 0.000000
vn -1.000000 0.000000 0.000000
vn -1.000000 0.000000 0.000000
vn -1.000000 0.000000 0.000000
vn -1.000000 0.000000 0.000000
vn -1.000000 0.000000 0.000000
vn -1.000000 0.000000 0.000000
vn -1.000000 0.000000 0.000000
vn -1.000000 0.000000 0.000000
vn -1.000000 0.000000 0.000000
vn -1.000000 0.000000 0.000000
vn -1.000000 0.000000 0.000000
vn -1.000000 0.000000 0.000000
vn -1.000000 0.000000 0.000000
vn -1.000000 0.000000 0.000000
vn -1.000000 0.000000 0.000000
vn -1.000000 0.000000 0.000000
vn -1.000000 0.000000 0.000000
vn -1.000000 0.000000 0.000000
vn -1.000000 0.000000 0.000000
vn -1.000000 0.000000 0.000000
vn -1.000000 0.000000 0.000000
vn -1.000000 0.000000 0.000000
vn -1.000000 0.000000 0.000000
vn -1.000000 0.000000 0.000000
vn -1.000000 0.000000 0.000000
vn -1.000000 0.000000 0.000000
vn -1.000000 0.000000 0.000000
vn -1.000000 0.000000 0.000000
vn -1.000000 0.000000 0.000000
vn -1.000000 0.000000 0.000000
vn -1.000000 0.000000 0.000000
vn -1.000000 0.000000 0.000000
vn -1.000000 0.000000 0.000000
vn -1.000000 0.000000 0.000000
vn -1.000000 0.000000 0.000000
vn -1.000000 0.000000 0.000000
vn -1.000000 0.000000 0.000000
vn -1.000000 0.000000 0.000000
vn -1.000000 0.000000 0.000000
vn -1.000000 0.000000 0.000000
vn -1.000000 0.000000 0.000000
vn -1.000000 0.000000 0.000000
vn -1.000000 0.000000 0.000000
vn -1.000000 0.000000 0.000000
vn -1.000000 0.000000 0.000000
vn -1.000000 0.000000 0.000000
vn -1.000000 0.000000 0.000000
vn -1.000000 0.000000 0.000000
vn -1.000000 0.000000 0.000000
vn -1.000000 0.000000 0.000000
vn -1.000000 0.000000 0.000000
vn -1.000000 0.000000 0.000000
vn -1.000000 0.000000 0.000000
vn -1.000000 0.000000 0.000000
vn -1.000000 0.000000 0.000000
vn -1.000000 0.000000 0.000000
vn -1.000000 0.000000 0.000000
vn -1.000000 0.000000 0.000000
vn -1.000000 0.000000 0.000000
vn -1.000000 0.000000 0.000000
vn -1.000000 0.000000 0.000000
vn -1.000000 0.000000 0.000000
vn -1.000000 0.000000 0.000000
vn -1.000000 0.000000 0.000000
vn -1.000000 0.000000 0.000000
vn -1.000000 0.000000 0.000000
vn -1.000000 0.000000 0.000000
vn -1.000000 0.000000 0.000000
vn -1.000000 0.000000 0.000000
vn -1.000000 0.000000 0.000000
vn -1.000000 0.000000 0.000000
vn -1.000000 0.000000 0.000000
vn -1.000000 0.000000 0.000000
vn -1.000000 0.000000 0.000000
vn -1.000000 0.000000 0.000000
vn -1.000000 0.000000 0.000000
vn -1.000000 0.000000 0.000000
vn -1.000000 0.000000 0.000000
vn -1.000000 0.000000 0.000000
vn -1.000000 0.000000 0.000000
vn -1.000000 0.000000 0.000000
vn -1.000000 0.000000 0.000000
vn -1.000000 0.000000 0.000000
vn -1.000000 0.000000 0.000000
vn -1.000000 0.000000 0.000000
vn -1.000000 0.000000 0.000000
vn -1.000000 0.000000 0.000000
vn -1.000000 0.000000 0.000000
vn -1.000000 0.000000 0.000000
vn -1.000000 0.000000 0.000000
vn -1.000000 0.000000 0.000000
vn -1.000000 0.000000 0.000000
vn -1.000000 0.000000 0.000000
vn -1.000000 0.000000 0.000000
vn -1.000000 0.000000 0.000000
vn -1.000000 0.000000 0.000000
vn -1.000000 0.000000 0.000000
s 1
g CerclePlein
usemtl initialShadingGroup
f 100/100/1 1/1/2 51/51/3 101/101/4
f 51/51/3 2/2/5 52/52/6 101/101/4
f 52/52/6 3/3/7 53/53/8 101/101/4
f 53/53/8 4/4/9 54/54/10 101/101/4
f 54/54/10 5/5/11 55/55/12 101/101/4
f 55/55/12 6/6/13 56/56/14 101/101/4
f 56/56/14 7/7/15 57/57/16 101/101/4
f 57/57/16 8/8/17 58/58/18 101/101/4
f 58/58/18 9/9/19 59/59/20 101/101/4
f 59/59/20 10/10/21 60/60/22 101/101/4
f 60/60/22 11/11/23 61/61/24 101/101/4
f 61/61/24 12/12/25 62/62/26 101/101/4
f 62/62/26 13/13/27 63/63/28 101/101/4
f 63/63/28 14/14/29 64/64/30 101/101/4
f 64/64/30 15/15/31 65/65/32 101/101/4
f 65/65/32 16/16/33 66/66/34 101/101/4
f 66/66/34 17/17/35 67/67/36 101/101/4
f 67/67/36 18/18/37 68/68/38 101/101/4
f 68/68/38 19/19/39 69/69/40 101/101/4
f 69/69/40 20/20/41 70/70/42 101/101/4
f 70/70/42 21/21/43 71/71/44 101/101/4
f 71/71/44 22/22/45 72/72/46 101/101/4
f 72/72/46 23/23/47 73/73/48 101/101/4
f 73/73/48 24/24/49 74/74/50 101/101/4
f 74/74/50 25/25/51 75/75/52 101/101/4
f 75/75/52 26/26/53 76/76/54 101/101/4
f 76/76/54 27/27/55 77/77/56 101/101/4
f 77/77/56 28/28/57 78/78/58 101/101/4
f 78/78/58 29/29/59 79/79/60 101/101/4
f 79/79/60 30/30/61 80/80/62 101/101/4
f 80/80/62 31/31/63 81/81/64 101/101/4
f 81/81/64 32/32/65 82/82/66 101/101/4
f 82/82/66 33/33/67 83/83/68 101/101/4
f 83/83/68 34/34/69 84/84/70 101/101/4
f 84/84/70 35/35/71 85/85/72 101/101/4
f 85/85/72 36/36/73 86/86/74 101/101/4
f 86/86/74 37/37/75 87/87/76 101/101/4
f 87/87/76 38/38/77 88/88/78 101/101/4
f 88/88/78 39/39/79 89/89/80 101/101/4
f 89/89/80 40/40/81 90/90/82 101/101/4
f 90/90/82 41/41/83 91/91/84 101/101/4
f 91/91/84 42/42/85 92/92/86 101/101/4
f 92/92/86 43/43/87 93/93/88 101/101/4
f 93/93/88 44/44/89 94/94/90 101/101/4
f 94/94/90 45/45/91 95/95/92 101/101/4
f 95/95/92 46/46/93 96/96/94 101/101/4
f 96/96/94 47/47/95 97/97/96 101/101/4
f 97/97/96 48/48/97 98/98/98 101/101/4
f 98/98/98 49/49/99 99/99/100 101/101/4
f 99/99/100 50/50/101 100/100/1 101/101/4
