# This file uses centimeters as units for non-parametric coordinates.

mtllib Hexagone_Plein.mtl
g default
v 0.000000 5.196152 3.000000
v 0.000000 5.196153 -3.000000
v 0.000000 0.000000 -6.000000
v 0.000000 -5.196153 -3.000000
v 0.000000 -5.196152 3.000000
v 0.000000 -0.000001 6.000000
vt 0.250000 0.000000
vt 0.750000 0.000000
vt 1.000000 0.433013
vt 0.750000 0.866025
vt 0.250000 0.866025
vt 0.000000 0.433013
vn -1.000000 0.000000 0.000000
vn -1.000000 0.000000 0.000000
vn -1.000000 0.000000 0.000000
vn -1.000000 0.000000 0.000000
vn -1.000000 0.000000 0.000000
vn -1.000000 0.000000 0.000000
s off
g HexagonePlein
usemtl initialShadingGroup
f 1/1/1 2/2/2 3/3/3 4/4/4 5/5/5 6/6/6
