# This file uses centimeters as units for non-parametric coordinates.

mtllib Pentagone_Creux.mtl
g default
v 0.000000 -5.427052 3.526709
v 0.000000 -5.427051 -3.526714
v 0.000000 1.281154 -5.706340
v -0.000000 5.427051 0.000000
v 0.000000 1.281152 5.706339
v 0.000000 -4.430171 2.878895
v 0.000000 -4.430169 -2.878900
v 0.000000 1.045822 -4.658155
v -0.000000 4.430169 0.000000
v 0.000000 1.045820 4.658156
vt 0.000000 0.000000
vt 1.000000 0.000000
vt 1.000000 1.000000
vt 0.000000 1.000000
vt 0.000000 0.000000
vt 1.000000 0.000000
vt 1.000000 1.000000
vt 0.000000 1.000000
vt 0.000000 0.000000
vt 1.000000 0.000000
vt 1.000000 1.000000
vt 0.000000 1.000000
vt 0.000000 0.000000
vt 1.000000 0.000000
vt 1.000000 1.000000
vt 0.000000 1.000000
vt 0.000000 0.000000
vt 1.000000 0.000000
vt 1.000000 1.000000
vt 0.000000 1.000000
vn -1.000000 0.000000 0.000000
vn -1.000000 0.000000 0.000000
vn -1.000000 0.000000 0.000000
vn -1.000000 0.000000 0.000000
vn -1.000000 0.000000 0.000000
vn -1.000000 0.000000 0.000000
vn -1.000000 0.000000 0.000000
vn -1.000000 0.000000 0.000000
vn -1.000000 -0.000000 -0.000000
vn -1.000000 -0.000000 -0.000000
vn -1.000000 -0.000000 -0.000000
vn -1.000000 -0.000000 -0.000000
vn -1.000000 -0.000000 0.000000
vn -1.000000 -0.000000 0.000000
vn -1.000000 -0.000000 0.000000
vn -1.000000 -0.000000 0.000000
vn -1.000000 0.000000 0.000000
vn -1.000000 0.000000 0.000000
vn -1.000000 0.000000 0.000000
vn -1.000000 0.000000 0.000000
s off
g PentagoneCreux
usemtl initialShadingGroup
f 2/1/1 1/2/2 6/3/3 7/4/4
f 3/5/5 2/6/6 7/7/7 8/8/8
f 4/9/9 3/10/10 8/11/11 9/12/12
f 5/13/13 4/14/14 9/15/15 10/16/16
f 1/17/17 5/18/18 10/19/19 6/20/20
